<svg xmlns="http://www.w3.org/2000/svg" width="31.928" height="31.928" viewBox="0 0 31.928 31.928">
    <g id="prefix__user_1_" data-name="user (1)" transform="translate(.5 .5)">
        <g id="prefix__Group_7" data-name="Group 7">
            <path id="prefix__Path_2" fill="#afafaf" stroke="#afafaf" d="M15.464 0A15.456 15.456 0 0 0 3.543 25.3c.006.008.006.018.012.025a15.46 15.46 0 0 0 5.839 4.357l.077.034c.181.076.364.147.547.216.072.027.144.055.218.081q.237.085.478.162c.1.033.205.065.309.1q.213.063.427.122c.126.034.253.065.379.1s.257.062.387.089.29.058.437.085c.118.022.235.044.353.063.162.026.326.047.49.068.106.013.211.029.317.04.186.02.373.034.56.046.087.006.174.015.261.02q.411.023.829.024c.279 0 .556-.008.83-.023.088 0 .174-.014.261-.02.188-.013.375-.027.56-.046.106-.011.211-.027.317-.04.164-.021.327-.042.49-.068.118-.019.236-.042.353-.063.146-.027.292-.054.437-.085.129-.028.258-.058.387-.089s.254-.062.379-.1c.143-.038.286-.079.427-.122.1-.031.206-.063.309-.1q.24-.077.478-.162l.218-.081c.184-.069.367-.14.547-.216l.077-.034a15.464 15.464 0 0 0 5.839-4.357c.006-.007.007-.018.012-.025A15.457 15.457 0 0 0 15.464 0zm6.267 28.464l-.023.011c-.184.089-.371.172-.56.254l-.128.055q-.247.1-.5.2l-.211.077c-.149.053-.3.1-.449.153-.094.03-.188.058-.282.086-.134.04-.269.079-.4.115-.114.03-.23.058-.345.086s-.242.058-.364.084-.268.053-.4.077c-.109.02-.217.041-.327.059-.151.024-.3.043-.456.062-.1.012-.192.027-.29.037-.174.019-.349.03-.524.043-.078.005-.155.014-.234.018q-.383.02-.768.021t-.767-.021c-.078 0-.156-.012-.234-.018-.175-.012-.35-.024-.524-.043-.1-.01-.193-.025-.29-.037-.152-.019-.3-.038-.456-.062-.11-.018-.218-.039-.327-.059-.135-.024-.269-.049-.4-.077s-.243-.055-.364-.084-.231-.055-.345-.086c-.136-.036-.271-.075-.4-.115-.094-.028-.189-.056-.282-.086q-.227-.073-.449-.153l-.211-.077q-.252-.094-.5-.2l-.127-.054c-.189-.081-.376-.165-.56-.254l-.034-.011a14.5 14.5 0 0 1-4.678-3.605 11.377 11.377 0 0 1 7.446-7.8c.072.044.146.083.22.124.043.024.086.05.13.073.154.081.309.158.469.226.122.054.248.1.374.145l.074.027a6.579 6.579 0 0 0 4.458 0l.074-.027c.126-.046.252-.092.374-.145.159-.069.315-.145.469-.226l.13-.073c.074-.041.149-.08.221-.125a11.38 11.38 0 0 1 7.446 7.8 14.517 14.517 0 0 1-4.676 3.605zM9.794 11.34a5.67 5.67 0 1 1 8.755 4.751 5.46 5.46 0 0 1-.631.353l-.077.037a5.8 5.8 0 0 1-4.753 0l-.077-.037a5.418 5.418 0 0 1-.631-.353 5.666 5.666 0 0 1-2.586-4.751zM27.18 23.878a12.42 12.42 0 0 0-7.241-7.564 6.7 6.7 0 1 0-8.95 0 12.422 12.422 0 0 0-7.241 7.564A14.429 14.429 0 1 1 29.9 15.464a14.352 14.352 0 0 1-2.72 8.414z" data-name="Path 2"/>
        </g>
    </g>
</svg>
